<?xml version="1.0" standalone="no"?>
<!DOCTYPE svg PUBLIC "-//W3C//DTD SVG 20010904//EN"
 "http://www.w3.org/TR/2001/REC-SVG-20010904/DTD/svg10.dtd">
<svg version="1.0" xmlns="http://www.w3.org/2000/svg"
 width="960.000000pt" height="960.000000pt" viewBox="0 0 960.000000 960.000000"
 preserveAspectRatio="xMidYMid meet">
<metadata>
Created by potrace 1.14, written by Peter Selinger 2001-2017
</metadata>
<g transform="translate(0.000000,960.000000) scale(0.100000,-0.100000)"
fill="#000000" stroke="none">
<path d="M2707 9594 c-1 -1 -36 -5 -77 -8 -84 -7 -128 -12 -180 -22 -19 -3
-46 -7 -60 -9 -55 -8 -224 -50 -270 -68 -8 -3 -38 -12 -65 -21 -280 -85 -630
-284 -863 -489 -65 -57 -226 -220 -278 -282 -211 -248 -401 -599 -489 -905 -1
-3 -5 -18 -9 -35 -4 -16 -12 -41 -17 -55 -5 -14 -11 -38 -14 -55 -2 -16 -7
-41 -10 -55 -3 -14 -8 -36 -10 -50 -2 -14 -7 -36 -10 -50 -4 -14 -8 -58 -10
-98 -3 -59 0 -82 16 -112 23 -45 69 -82 119 -98 25 -8 1247 -11 4330 -10 4249
0 4295 0 4334 20 51 26 91 69 106 113 11 33 9 117 -5 185 -2 14 -10 50 -16 80
-28 142 -101 382 -135 443 -8 15 -13 27 -10 27 3 0 -8 26 -24 59 -17 32 -30
64 -30 70 0 6 -4 11 -10 11 -5 0 -10 6 -10 13 0 11 -40 97 -50 107 -3 3 -12
19 -20 35 -8 17 -17 32 -20 35 -3 3 -30 43 -60 90 -126 196 -354 445 -540 590
-25 19 -47 37 -50 40 -3 3 -25 19 -50 35 -25 16 -47 33 -50 36 -3 4 -19 15
-37 25 -17 11 -63 38 -103 62 -39 23 -76 42 -81 42 -5 0 -9 5 -9 10 0 6 -9 10
-20 10 -11 0 -20 5 -20 10 0 6 -9 10 -20 10 -11 0 -20 5 -20 10 0 6 -9 10 -20
10 -11 0 -20 5 -20 12 0 6 -3 8 -6 5 -4 -4 -19 0 -33 8 -30 18 -170 75 -182
75 -4 0 -20 5 -36 12 -15 6 -32 10 -37 9 -4 -1 -13 2 -20 7 -12 10 -190 58
-250 68 -21 3 -48 8 -60 11 -11 2 -34 6 -51 9 -16 2 -48 6 -70 9 -22 4 -60 9
-85 11 -42 5 -4278 13 -4283 8z"/>
<path d="M444 6625 c-46 -23 -77 -54 -102 -98 -16 -30 -17 -84 -17 -727 0
-645 1 -697 18 -727 31 -58 88 -99 150 -109 18 -3 73 -5 122 -5 50 1 96 1 103
1 53 -1 100 -1 117 -1 11 1 61 1 110 1 50 0 99 0 110 0 11 0 46 -1 78 -2 31
-2 57 1 57 6 0 5 5 5 13 -1 15 -10 97 -10 115 0 6 5 12 4 12 0 0 -5 44 -7 98
-5 112 3 101 3 172 2 59 0 66 0 133 -1 23 0 51 0 62 0 11 1 38 0 60 -2 22 -1
52 0 68 4 15 4 27 5 27 1 0 -4 29 -7 65 -7 36 0 65 4 65 8 0 5 6 5 13 0 16
-10 126 -11 155 -1 12 4 22 4 22 0 0 -4 29 -7 65 -7 36 0 65 4 65 9 0 5 6 4
13 -1 6 -5 57 -7 112 -6 55 2 106 3 113 3 47 -1 100 -1 117 -1 11 1 61 1 110
1 50 0 99 0 110 0 11 0 46 -1 78 -2 31 -2 57 1 57 6 0 5 5 5 13 -1 15 -10 97
-10 115 0 6 5 12 4 12 0 0 -5 44 -7 98 -5 112 3 101 3 172 2 59 0 66 0 133 -1
23 0 51 0 62 0 11 1 38 0 60 -2 22 -1 52 0 68 4 15 4 27 5 27 1 0 -4 29 -7 65
-7 36 0 65 4 65 8 0 5 6 5 13 0 16 -10 126 -11 155 -1 12 4 22 4 22 0 0 -4 29
-7 65 -7 36 0 65 4 65 9 0 5 6 4 13 -1 6 -5 57 -7 112 -6 55 2 106 3 113 3 47
-1 100 -1 117 -1 11 1 61 1 110 1 50 0 99 0 110 0 11 0 46 -1 78 -2 31 -2 57
1 57 6 0 5 5 5 13 -1 15 -10 97 -10 115 0 6 5 12 4 12 0 0 -5 44 -7 98 -5 112
3 101 3 172 2 59 0 66 0 133 -1 23 0 51 0 62 0 11 1 38 0 60 -2 22 -1 52 0 68
4 15 4 27 5 27 1 0 -4 29 -7 65 -7 36 0 65 4 65 8 0 5 6 5 13 0 16 -10 126
-11 155 -1 12 4 22 4 22 0 0 -4 29 -7 65 -7 36 0 65 4 65 9 0 5 6 4 13 -1 6
-5 57 -7 112 -6 55 2 106 3 113 3 47 -1 100 -1 117 -1 11 1 61 1 110 1 50 0
99 0 110 0 11 0 46 -1 78 -2 31 -2 57 1 57 6 0 5 5 5 13 -1 15 -10 97 -10 115
0 6 5 12 4 12 0 0 -5 44 -7 98 -5 112 3 101 3 172 2 59 0 66 0 133 -1 23 0 51
0 62 0 11 1 38 0 60 -2 22 -1 52 0 68 4 15 4 27 5 27 1 0 -4 29 -7 65 -7 36 0
65 4 65 8 0 5 6 5 13 0 16 -10 126 -11 155 -1 12 4 22 4 22 0 0 -4 29 -7 65
-7 36 0 65 4 65 9 0 5 6 4 13 -1 6 -5 57 -7 112 -6 55 2 106 3 113 3 47 -1
100 -1 117 -1 11 1 61 1 110 1 50 0 99 0 110 0 11 0 46 -1 78 -2 31 -2 57 1
57 5 0 5 5 5 12 1 17 -11 138 -11 138 0 0 5 6 4 12 -1 37 -28 168 24 208 83
13 20 26 44 29 53 3 9 7 320 8 691 3 603 2 680 -13 718 -19 50 -65 99 -114
120 -31 14 -481 16 -4351 16 -4289 1 -4316 1 -4355 -19z"/>
<path d="M456 4415 c-49 -17 -93 -59 -117 -110 -18 -38 -19 -65 -15 -445 2
-223 6 -421 10 -440 3 -19 8 -57 11 -84 3 -27 13 -81 21 -120 9 -39 18 -82 20
-96 17 -87 67 -248 104 -334 10 -25 17 -46 15 -46 -2 0 9 -26 24 -57 15 -32
41 -84 56 -117 39 -80 80 -121 141 -139 60 -18 151 -6 189 25 99 81 239 171
350 226 53 26 219 92 245 97 8 2 15 4 15 5 0 1 7 3 15 5 8 2 42 10 75 19 33 9
76 19 95 21 19 3 58 8 85 12 60 8 389 8 425 0 14 -3 44 -8 67 -11 121 -15 322
-80 453 -146 146 -73 157 -79 170 -95 7 -8 17 -15 22 -15 25 0 154 -106 273
-225 103 -103 127 -133 207 -252 51 -74 155 -272 162 -306 4 -18 16 -50 27
-69 5 -10 9 -26 9 -36 0 -10 3 -22 8 -26 4 -4 8 -12 8 -17 1 -5 2 -10 4 -11 4
-6 25 -108 45 -223 17 -96 37 -138 84 -182 65 -61 36 -59 1054 -58 1033 1 970
-3 1037 67 45 46 63 90 76 183 15 106 56 264 91 345 3 8 7 20 8 26 6 27 93
197 137 269 50 80 207 283 220 284 4 1 26 20 50 44 96 96 235 198 369 269 101
54 287 126 368 143 9 2 39 9 66 15 59 14 100 21 135 24 14 1 30 4 35 8 14 7
358 2 420 -7 193 -28 446 -113 590 -199 66 -39 138 -83 150 -94 6 -4 28 -21
50 -37 22 -17 42 -33 43 -37 2 -5 9 -8 15 -8 6 0 18 -6 26 -14 9 -8 40 -19 70
-24 70 -13 141 7 185 51 27 27 115 188 122 223 1 6 8 27 17 45 26 62 45 113
62 169 9 30 19 62 22 70 3 8 8 24 10 35 2 11 7 31 13 45 5 14 14 50 20 81 6
30 13 69 17 85 3 16 7 40 8 54 2 14 4 25 5 25 1 0 3 18 6 40 2 22 6 54 10 70
3 17 8 207 11 423 6 423 2 462 -44 512 -13 14 -23 28 -23 32 0 5 -7 8 -15 8
-8 0 -15 4 -15 8 0 31 -76 32 -4381 32 -3629 -1 -4310 -3 -4343 -15z"/>
<path d="M1958 2325 c-2 -2 -37 -6 -78 -9 -78 -8 -177 -29 -235 -50 -11 -5
-37 -14 -57 -22 -140 -52 -295 -154 -405 -267 -46 -47 -83 -90 -83 -96 0 -6
-4 -11 -8 -11 -7 0 -95 -127 -98 -140 0 -3 -17 -39 -37 -80 -107 -219 -138
-501 -81 -740 22 -93 16 -74 57 -180 71 -185 216 -373 382 -496 22 -16 42 -31
45 -34 10 -10 65 -41 135 -76 216 -108 492 -146 725 -99 14 3 39 8 55 10 43 8
158 46 170 56 5 5 17 9 27 9 10 0 18 4 18 9 0 5 12 12 26 15 28 7 157 85 162
98 2 4 8 8 13 8 22 0 178 152 241 236 26 33 69 103 96 155 59 110 89 190 108
289 2 14 6 30 9 37 10 28 18 135 18 223 -1 120 -8 186 -33 280 -11 41 -21 80
-23 85 -17 64 -103 233 -156 305 -107 145 -245 265 -401 348 -59 32 -171 79
-205 87 -11 3 -49 11 -85 20 -84 19 -291 40 -302 30z"/>
<path d="M7537 2324 c-1 -2 -29 -5 -62 -7 -33 -3 -84 -11 -113 -17 -30 -7 -61
-13 -70 -15 -9 -2 -18 -4 -19 -5 -2 -2 -6 -3 -10 -4 -16 -4 -89 -30 -120 -43
-18 -7 -36 -13 -39 -12 -4 0 -10 -3 -13 -8 -3 -4 -24 -17 -46 -28 -39 -19
-115 -65 -125 -75 -3 -3 -27 -23 -55 -45 -78 -62 -172 -160 -213 -221 -62 -93
-83 -132 -119 -214 -42 -95 -78 -218 -88 -301 -13 -97 -8 -309 9 -384 25 -114
60 -214 106 -303 47 -91 71 -133 86 -147 5 -5 23 -28 39 -50 40 -55 162 -173
216 -210 24 -16 46 -33 49 -36 4 -6 57 -36 120 -70 44 -24 192 -82 223 -88 4
0 8 -1 10 -2 9 -3 41 -8 147 -26 19 -3 89 -6 155 -6 352 1 683 164 900 443 55
70 82 110 83 123 0 5 12 24 27 43 14 19 23 34 20 34 -4 0 3 17 14 37 32 60 74
194 87 278 2 17 6 44 9 60 7 44 7 211 0 275 -6 55 -31 171 -42 200 -4 8 -7 22
-8 30 -3 18 -85 203 -94 210 -3 3 -12 17 -20 32 -8 15 -23 37 -33 48 -10 11
-17 20 -14 20 17 0 -192 217 -242 250 -20 14 -39 27 -42 30 -26 29 -235 132
-305 151 -98 26 -157 38 -215 45 -64 7 -189 12 -193 8z"/>
</g>
</svg>
